<?xml version="1.0" encoding="UTF-8"?>
<svg version="1.1" xmlns="http://www.w3.org/2000/svg" width="512" height="512">
<path d="M0 0 C3.80016792 0.0114346 7.6000566 0.00459813 11.40021515 -0.0069046 C28.78737546 -0.05118831 45.99148802 0.3784946 63.29882812 2.26074219 C63.29882812 2.92074219 63.29882812 3.58074219 63.29882812 4.26074219 C64.81476563 4.16792969 64.81476563 4.16792969 66.36132812 4.07324219 C73.10427588 4.036662 79.74213161 5.82646482 86.29882812 7.26074219 C85.98632812 9.63574219 85.98632812 9.63574219 85.29882812 12.26074219 C81.80595268 14.58932581 79.65302611 14.77478634 75.50585938 15.26074219 C74.50857063 15.38255859 74.50857063 15.38255859 73.49113464 15.50683594 C71.36536245 15.76572165 69.23855065 16.01407976 67.11132812 16.26074219 C55.09476962 17.64510399 55.09476962 17.64510399 43.29882812 20.26074219 C40.09807594 20.98434288 36.88607552 21.65274928 33.67382812 22.32324219 C32.85398437 22.49662109 32.03414062 22.67 31.18945312 22.84863281 C26.90468875 23.74760669 22.62529555 24.58166882 18.29882812 25.26074219 C18.29882812 25.92074219 18.29882812 26.58074219 18.29882812 27.26074219 C16.67632872 28.09893376 15.05074316 28.93115379 13.42382812 29.76074219 C12.51890625 30.22480469 11.61398437 30.68886719 10.68164062 31.16699219 C8.29882812 32.26074219 8.29882812 32.26074219 6.29882812 32.26074219 C6.29882812 32.92074219 6.29882812 33.58074219 6.29882812 34.26074219 C0.82263765 39.26074219 0.82263765 39.26074219 -1.70117188 39.26074219 C-1.97316406 40.00324219 -2.24515625 40.74574219 -2.52539062 41.51074219 C-3.6322249 44.09948415 -4.88143905 45.98681361 -6.51367188 48.26074219 C-11.20960623 55.79955837 -12.46499852 64.78860013 -14.22387695 73.37817383 C-14.70117188 75.26074219 -14.70117188 75.26074219 -15.70117188 76.26074219 C-15.80076808 78.10233241 -15.83197598 79.94771186 -15.83398438 81.79199219 C-15.83591797 83.47228516 -15.83591797 83.47228516 -15.83789062 85.18652344 C-15.83402344 86.36601562 -15.83015625 87.54550781 -15.82617188 88.76074219 C-15.83003906 89.94023437 -15.83390625 91.11972656 -15.83789062 92.33496094 C-15.83660156 93.45515625 -15.8353125 94.57535156 -15.83398438 95.72949219 C-15.83229248 97.28313477 -15.83229248 97.28313477 -15.83056641 98.86816406 C-15.9708234 101.21372042 -15.9708234 101.21372042 -14.70117188 102.26074219 C-14.27594579 104.56453559 -13.91044666 106.87950511 -13.57617188 109.19824219 C-13.38796875 110.46539062 -13.19976562 111.73253906 -13.00585938 113.03808594 C-12.70117188 116.26074219 -12.70117188 116.26074219 -13.70117188 118.26074219 C-17.61153407 119.56419625 -21.28777928 119.32481763 -25.35742188 119.25292969 C-27.12043674 119.2353923 -28.88345798 119.21848609 -30.64648438 119.20214844 C-33.41326769 119.1713847 -36.17972724 119.13610456 -38.94628906 119.08935547 C-60.17665165 118.74963913 -73.88862841 123.44151809 -89.65429688 138.15917969 C-91.74253763 140.09039437 -91.74253763 140.09039437 -92.70117188 142.26074219 C-91.52554688 142.41542969 -91.52554688 142.41542969 -90.32617188 142.57324219 C-87.70117188 143.26074219 -87.70117188 143.26074219 -85.70117188 146.26074219 C-84.93412557 152.60630708 -85.29950638 157.73303576 -88.70117188 163.26074219 C-88.70117188 163.92074219 -88.70117188 164.58074219 -88.70117188 165.26074219 C-80.66494726 169.2788545 -64.41809965 168.09761647 -55.82617188 166.57324219 C-52.05883068 164.99095889 -49.78331355 162.92259182 -46.70117188 160.26074219 C-45.71117187 160.26074219 -44.72117188 160.26074219 -43.70117188 160.26074219 C-43.70117188 159.60074219 -43.70117188 158.94074219 -43.70117188 158.26074219 C-38.21441991 156.39291173 -33.47924211 156.02490259 -27.70117188 156.26074219 C-27.37117187 157.91074219 -27.04117188 159.56074219 -26.70117188 161.26074219 C-29.70557209 163.26367566 -31.41111132 163.75345845 -34.88867188 164.38574219 C-35.78972656 164.55332031 -36.69078125 164.72089844 -37.61914062 164.89355469 C-38.30621094 165.01472656 -38.99328125 165.13589844 -39.70117188 165.26074219 C-28.67958989 164.40425933 -17.77561994 163.27630822 -6.88867188 161.32324219 C-5.53974854 161.08686035 -5.53974854 161.08686035 -4.16357422 160.84570312 C0.6092943 159.95352804 5.00562694 158.76246199 9.51342773 156.95922852 C12.01721846 155.97969272 14.58479647 155.29241765 17.17382812 154.57324219 C34.15023393 149.41336014 49.81178781 140.66021681 64.93554688 131.54589844 C67.29882812 130.26074219 67.29882812 130.26074219 69.29882812 130.26074219 C69.62882813 129.27074219 69.95882812 128.28074219 70.29882812 127.26074219 C72.26757813 125.86621094 72.26757813 125.86621094 74.79882812 124.44824219 C83.72756603 119.47709113 83.72756603 119.47709113 91.48632812 112.94824219 C94.05073405 110.56069184 95.82416096 110.26074219 99.29882812 110.26074219 C102.17382812 111.76074219 102.17382812 111.76074219 104.29882812 114.26074219 C104.92382812 117.69824219 104.92382812 117.69824219 104.29882812 121.26074219 C100.44697474 126.3965467 94.60306669 129.75368734 89.29882812 133.26074219 C88.32816406 133.90269531 87.3575 134.54464844 86.35742188 135.20605469 C78.25557098 140.37744887 69.85686085 144.50024496 61.10498047 148.44140625 C59.67779031 149.08883125 58.26153695 149.7603625 56.84960938 150.44042969 C50.37234389 153.51999402 43.5104112 155.58521235 36.70117188 157.79589844 C33.91119787 158.70212422 31.18890015 159.69261208 28.46679688 160.78417969 C23.34714619 162.73310523 18.0289342 163.73225978 12.67382812 164.82324219 C5.37991859 166.25711393 5.37991859 166.25711393 -1.74804688 168.31542969 C-6.19127155 169.73773176 -10.70730916 170.23977856 -15.32617188 170.82324219 C-16.327854 170.95255127 -17.32953613 171.08186035 -18.36157227 171.21508789 C-28.1226985 172.41611444 -37.87621727 172.94866805 -47.70117188 173.26074219 C-49.28807835 183.39353028 -50.74310329 193.94493627 -45.30664062 203.11230469 C-39.04422193 211.49267034 -30.8558416 215.42099741 -20.70117188 217.26074219 C-20.70117188 217.92074219 -20.70117188 218.58074219 -20.70117188 219.26074219 C-16.88835243 219.1225869 -13.07601471 218.97393657 -9.26367188 218.82324219 C-8.17505859 218.78392578 -7.08644531 218.74460937 -5.96484375 218.70410156 C-4.41313477 218.64125977 -4.41313477 218.64125977 -2.83007812 218.57714844 C-1.87174072 218.54049072 -0.91340332 218.50383301 0.07397461 218.46606445 C2.27021738 218.50239794 2.27021738 218.50239794 3.29882812 217.26074219 C4.8181085 217.18894255 6.34050294 217.17682211 7.86132812 217.19824219 C8.68761719 217.20726562 9.51390625 217.21628906 10.36523438 217.22558594 C11.00332031 217.2371875 11.64140625 217.24878906 12.29882812 217.26074219 C12.29882812 218.91074219 12.29882812 220.56074219 12.29882812 222.26074219 C8.26688896 224.1423138 4.2442693 224.92652759 -0.10351562 225.69824219 C-2.76329129 226.21901915 -2.76329129 226.21901915 -5.48632812 227.23120117 C-8.5952104 228.22680844 -11.5113277 228.81788404 -14.73632812 229.29589844 C-15.87650391 229.46541016 -17.01667969 229.63492188 -18.19140625 229.80957031 C-19.37025391 229.97908203 -20.54910156 230.14859375 -21.76367188 230.32324219 C-22.91544922 230.49662109 -24.06722656 230.67 -25.25390625 230.84863281 C-50.61735265 234.56139754 -79.9602107 237.14331167 -102.22851562 222.11621094 C-111.71242317 214.99953466 -119.10354602 205.4604044 -121.16992188 193.56152344 C-121.82902488 187.14442336 -121.81335787 180.70520423 -121.70117188 174.26074219 C-122.48363281 173.85082031 -123.26609375 173.44089844 -124.07226562 173.01855469 C-125.08417969 172.47972656 -126.09609375 171.94089844 -127.13867188 171.38574219 C-128.14800781 170.85207031 -129.15734375 170.31839844 -130.19726562 169.76855469 C-132.70117188 168.26074219 -132.70117188 168.26074219 -133.70117188 166.26074219 C-135.35640011 165.24192067 -137.02507325 164.24485152 -138.70117188 163.26074219 C-147.26902512 157.02831991 -147.26902512 157.02831991 -148.22070312 153.13574219 C-148.23488281 152.45511719 -148.2490625 151.77449219 -148.26367188 151.07324219 C-148.30053884 147.39038596 -148.30053884 147.39038596 -150.09179688 145.78808594 C-155.047171 142.49457509 -160.6053329 140.78437762 -166.25976562 139.05761719 C-168.70117187 138.26074219 -168.70117187 138.26074219 -169.70117188 137.26074219 C-172.70117188 137.09407552 -172.70117188 137.09407552 -175.70117188 137.26074219 C-176.03117187 137.59074219 -176.36117187 137.92074219 -176.70117188 138.26074219 C-178.22045225 138.33254183 -179.74284669 138.34466226 -181.26367188 138.32324219 C-182.08996094 138.31421875 -182.91625 138.30519531 -183.76757812 138.29589844 C-184.40566406 138.28429687 -185.04375 138.27269531 -185.70117188 138.26074219 C-184.82865804 130.62624609 -178.68719094 126.16381628 -173.45117188 121.07324219 C-170.9865222 118.55257775 -168.65921262 115.96471882 -166.32617188 113.32324219 C-157.87549159 103.90876531 -147.75305112 94.86277104 -134.49609375 94.140625 C-129.22700421 94.01174992 -123.96871657 94.1058144 -118.70117188 94.26074219 C-119.01828125 93.71289062 -119.33539063 93.16503906 -119.66210938 92.60058594 C-123.03171027 85.01265008 -121.79632803 74.51395615 -121.82617188 66.32324219 C-121.83084473 65.42355713 -121.83551758 64.52387207 -121.84033203 63.59692383 C-121.8292586 59.03765341 -121.63232684 54.7465443 -120.70117188 50.26074219 C-120.04117188 50.26074219 -119.38117188 50.26074219 -118.70117188 50.26074219 C-118.61867188 49.29136719 -118.53617187 48.32199219 -118.45117188 47.32324219 C-117.80125938 42.58955117 -115.77811864 38.52089811 -113.70117188 34.26074219 C-113.04117188 34.26074219 -112.38117188 34.26074219 -111.70117188 34.26074219 C-111.57226562 33.66519531 -111.44335938 33.06964844 -111.31054688 32.45605469 C-108.64487502 22.85280097 -98.13630526 16.74870941 -90.19335938 11.65136719 C-81.90891581 7.10194394 -72.07114975 5.00879881 -62.77539062 3.71386719 C-59.83420355 3.59258671 -59.83420355 3.59258671 -58.70117188 2.26074219 C-39.36093652 -0.40800693 -19.48286067 -0.05920049 0 0 Z M-60.70117188 10.26074219 C-60.70117188 10.92074219 -60.70117188 11.58074219 -60.70117188 12.26074219 C-61.83554688 12.34324219 -62.96992188 12.42574219 -64.13867188 12.51074219 C-75.56724585 13.99967612 -84.88545927 21.37376587 -92.07617188 30.04589844 C-98.00218613 38.12294191 -101.00235028 46.70446027 -103.70117188 56.26074219 C-104.04535156 57.21335938 -104.38953125 58.16597656 -104.74414062 59.14746094 C-105.87478459 62.82551499 -106.36971844 66.44968946 -106.76367188 70.26074219 C-106.84601074 71.02241699 -106.92834961 71.7840918 -107.01318359 72.56884766 C-108.01293646 82.43769523 -108.35791855 92.35104646 -108.70117188 102.26074219 C-112.81061608 104.56060467 -115.05548909 104.32696447 -119.70117188 103.26074219 C-121.16739675 102.52628951 -122.62544377 101.77534932 -124.07617188 101.01074219 C-127.63337201 99.341036 -129.56720207 99.0588947 -133.32617188 100.26074219 C-134.80371421 100.88367815 -136.26382162 101.54996459 -137.70117188 102.26074219 C-138.343125 102.56753906 -138.98507813 102.87433594 -139.64648438 103.19042969 C-145.79468729 106.41091693 -149.83113375 111.36954624 -154.22851562 116.56542969 C-156.27197246 118.91784418 -158.47012833 121.08690489 -160.70117188 123.26074219 C-163.37296713 125.87040267 -165.62687408 128.1492955 -167.70117188 131.26074219 C-166.9509375 131.35871094 -166.20070312 131.45667969 -165.42773438 131.55761719 C-156.18283363 132.9082576 -148.69503538 135.46442408 -140.70117188 140.26074219 C-137.76499849 141.16418015 -135.96228711 141.30674842 -132.92431641 140.77148438 C-129.70295945 140.26102545 -126.82281503 140.22203797 -123.56835938 140.33886719 C-121.86486328 140.37753906 -121.86486328 140.37753906 -120.12695312 140.41699219 C-117.75149634 140.47971052 -115.37640065 140.5579463 -113.00195312 140.65136719 C-111.86886719 140.67199219 -110.73578125 140.69261719 -109.56835938 140.71386719 C-108.5382373 140.74641602 -107.50811523 140.77896484 -106.44677734 140.8125 C-102.71709855 140.06298248 -101.79293555 138.33100105 -99.70117188 135.26074219 C-97.88476562 133.78417969 -97.88476562 133.78417969 -96.13867188 132.63574219 C-94.36416094 131.45800442 -92.80787762 130.36894661 -91.31054688 128.85058594 C-80.77177455 118.43971133 -64.69618958 112.41126787 -50.08789062 111.94433594 C-48.84072266 111.90244141 -47.59355469 111.86054688 -46.30859375 111.81738281 C-44.36823242 111.7584082 -44.36823242 111.7584082 -42.38867188 111.69824219 C-41.07576172 111.65505859 -39.76285156 111.611875 -38.41015625 111.56738281 C-35.173929 111.46146992 -31.9376273 111.35939333 -28.70117188 111.26074219 C-28.84160065 109.61443891 -28.98866517 107.96870039 -29.13867188 106.32324219 C-29.26048828 104.94845703 -29.26048828 104.94845703 -29.38476562 103.54589844 C-29.46162164 101.29914487 -29.46162164 101.29914487 -30.70117188 100.26074219 C-30.79997984 98.78421555 -30.83196433 97.30306983 -30.83398438 95.82324219 C-30.83527344 94.92863281 -30.8365625 94.03402344 -30.83789062 93.11230469 C-30.83402344 92.17128906 -30.83015625 91.23027344 -30.82617188 90.26074219 C-30.83003906 89.31972656 -30.83390625 88.37871094 -30.83789062 87.40917969 C-30.83595703 86.06726563 -30.83595703 86.06726563 -30.83398438 84.69824219 C-30.83285645 83.87195313 -30.83172852 83.04566406 -30.83056641 82.19433594 C-30.70117188 80.26074219 -30.70117188 80.26074219 -29.70117188 79.26074219 C-29.18215378 76.90884876 -28.70796876 74.56434198 -28.26367188 72.19824219 C-27.2284121 66.83891398 -26.10108666 61.53734407 -24.70117188 56.26074219 C-24.04117188 56.26074219 -23.38117188 56.26074219 -22.70117188 56.26074219 C-22.32605469 55.4525 -21.9509375 54.64425781 -21.56445312 53.81152344 C-16.55275183 43.3462832 -16.55275183 43.3462832 -11.70117188 39.26074219 C-10.74210937 38.27074219 -10.74210937 38.27074219 -9.76367188 37.26074219 C7.5943112 20.4287586 29.77328934 14.1482406 53.41064453 12.71313477 C55.78822707 12.1434864 56.65261711 11.01384695 58.29882812 9.26074219 C40.75595149 7.29899657 23.34562573 6.9455275 5.71948242 7 C1.98291565 7.01140408 -1.75336638 7.00461449 -5.48992348 6.99311066 C-23.95714796 6.94500456 -42.46292053 6.9878228 -60.70117188 10.26074219 Z M-103.70117188 177.26074219 C-104.69117188 177.59074219 -105.68117188 177.92074219 -106.70117188 178.26074219 C-107.34270358 188.31140551 -102.98172935 197.85321865 -97.70117188 206.26074219 C-95.24852813 208.4386116 -95.24852813 208.4386116 -92.70117188 210.26074219 C-92.18554688 210.793125 -91.66992188 211.32550781 -91.13867188 211.87402344 C-89.45646413 213.49680537 -87.7931391 214.41414475 -85.70117188 215.44824219 C-85.02054688 215.79242188 -84.33992188 216.13660156 -83.63867188 216.49121094 C-81.58393704 217.44530627 -81.58393704 217.44530627 -78.70117188 217.26074219 C-78.70117188 217.92074219 -78.70117188 218.58074219 -78.70117188 219.26074219 C-64.20226959 222.67098695 -50.50908722 223.4186465 -35.70117188 223.26074219 C-38.36328559 221.88494392 -40.76413803 220.89010658 -43.70117188 220.26074219 C-43.70117188 219.60074219 -43.70117188 218.94074219 -43.70117188 218.26074219 C-44.73242188 217.74511719 -45.76367188 217.22949219 -46.82617188 216.69824219 C-53.40404061 212.88440718 -57.31443654 207.3709882 -59.95507812 200.30371094 C-61.4824314 194.07434864 -61.5426496 187.64918995 -61.70117188 181.26074219 C-61.04117188 181.26074219 -60.38117188 181.26074219 -59.70117188 181.26074219 C-59.04117188 178.62074219 -58.38117188 175.98074219 -57.70117188 173.26074219 C-63.6093253 173.16184186 -69.5169966 173.08925848 -75.42578125 173.04101562 C-77.43563226 173.02090414 -79.44542479 172.99361104 -81.45507812 172.95898438 C-84.34454783 172.91044585 -87.23324379 172.88776896 -90.12304688 172.87011719 C-91.02110046 172.84947205 -91.91915405 172.8288269 -92.84442139 172.80755615 C-97.972531 172.80571297 -100.37901549 172.99931601 -103.70117188 177.26074219 Z " fill="#212750" transform="translate(297.701171875,107.7392578125)"/>
<path d="M0 0 C1.98 0 3.96 0 6 0 C7.32 2.97 8.64 5.94 10 9 C10.99 6.03 11.98 3.06 13 0 C14.65 0 16.3 0 18 0 C18.66 3.3 19.32 6.6 20 10 C20.66 10 21.32 10 22 10 C22.12375 9.278125 22.2475 8.55625 22.375 7.8125 C22.9904931 5.04278106 23.88444374 2.6029646 25 0 C26.65 0 28.3 0 30 0 C29.38334864 5.39392739 28.12077204 10.28395283 26.4375 15.4375 C26.20353516 16.16904297 25.96957031 16.90058594 25.72851562 17.65429688 C25.15732778 19.43780179 24.57936877 21.21913583 24 23 C22.35 23.33 20.7 23.66 19 24 C17.68 20.37 16.36 16.74 15 13 C14.5875 14.629375 14.175 16.25875 13.75 17.9375 C13.046875 20.71484375 13.046875 20.71484375 12 23 C9.890625 23.81640625 9.890625 23.81640625 8 24 C5.053754 19.67135118 3.71061393 15.29248888 2.3125 10.3125 C2.08755859 9.54099609 1.86261719 8.76949219 1.63085938 7.97460938 C0 2.29882219 0 2.29882219 0 0 Z " fill="#1F254E" transform="translate(259,379)"/>
<path d="M0 0 C1.65 0 3.3 0 5 0 C6.32 2.64 7.64 5.28 9 8 C10.46132217 5.07735566 11.34099246 3.07536854 12 0 C13.65 0 15.3 0 17 0 C17.99 2.97 18.98 5.94 20 9 C22.6855594 6.3144406 23.06049974 3.62378672 24 0 C25.98 0 27.96 0 30 0 C29.17258782 4.65767981 27.88222775 9.15117633 26.5625 13.6875 C26.34529297 14.45900391 26.12808594 15.23050781 25.90429688 16.02539062 C24.23506773 21.76493227 24.23506773 21.76493227 22 24 C19.984375 23.91015625 19.984375 23.91015625 18 23 C16.953125 20.93359375 16.953125 20.93359375 16.25 18.4375 C16.00765625 17.61121094 15.7653125 16.78492188 15.515625 15.93359375 C15.34546875 15.29550781 15.1753125 14.65742188 15 14 C13.31573191 17.25530808 12.11213866 20.50470706 11 24 C9.35 23.67 7.7 23.34 6 23 C4.99325541 19.73120384 3.99577511 16.4596529 3 13.1875 C2.71382812 12.25873047 2.42765625 11.32996094 2.1328125 10.37304688 C1.86210937 9.48037109 1.59140625 8.58769531 1.3125 7.66796875 C1.06113281 6.84578857 0.80976563 6.0236084 0.55078125 5.17651367 C0 3 0 3 0 0 Z " fill="#1F254D" transform="translate(134,379)"/>
<path d="M0 0 C1.72766602 0.01353516 1.72766602 0.01353516 3.49023438 0.02734375 C6.30621193 0.05071286 9.12174158 0.08347435 11.9375 0.125 C11.9375 4.44639637 11.54520193 5.12223556 9.125 8.4375 C6.46863046 12.23051939 4.590508 15.80881245 2.9375 20.125 C-3.62478539 16.83046488 -9.76279459 13.11127363 -15.75 8.875 C-16.37406738 8.43881348 -16.99813477 8.00262695 -17.64111328 7.55322266 C-19.15476141 6.4638194 -20.614527 5.30028903 -22.0625 4.125 C-22.0625 3.465 -22.0625 2.805 -22.0625 2.125 C-14.60144572 0.11534169 -7.70216899 -0.11555476 0 0 Z " fill="#E20012" transform="translate(181.0625,246.875)"/>
<path d="M0 0 C6.75 1.625 6.75 1.625 9 5 C9.75056966 11.20925808 9.57971955 16.69671177 6 22 C4.66796875 23.66796875 4.66796875 23.66796875 3 25 C-1.81539741 25.33365113 -6.68163561 24.08953116 -11 22 C-10.50856181 14.46461436 -7.57660534 7.27945891 -2.1875 1.875 C-1.465625 1.25625 -0.74375 0.6375 0 0 Z " fill="#E20112" transform="translate(203,249)"/>
<path d="M0 0 C3.29401036 2.04228642 4.55163264 3.43071425 5.6171875 7.16015625 C6.23226189 10.91964158 6.31387236 13.2937872 4.75 16.8125 C4.1725 17.534375 3.595 18.25625 3 19 C2.62875 19.7425 2.2575 20.485 1.875 21.25 C-0.7886817 23.73610292 -3.2149544 23.85840598 -6.78125 24.1015625 C-10.81908134 23.91673219 -12.95476617 22.12895401 -15.609375 19.26171875 C-17.39500409 16.35756357 -17.40042379 14.38983845 -17.375 11 C-17.38273438 9.96875 -17.39046875 8.9375 -17.3984375 7.875 C-16.95236814 4.65630346 -16.26449533 3.29638963 -14 1 C-9.35666894 -0.54777702 -4.84437362 -0.60200549 0 0 Z M-10.9375 6.625 C-12.39177282 9.87572748 -12.07387226 11.63520026 -11 15 C-9.38451799 17.12894624 -9.38451799 17.12894624 -7 18 C-4.60736593 17.33228817 -2.77902615 16.77902615 -1 15 C-0.66143172 9.67326964 -0.66143172 9.67326964 -3 5 C-6.45976783 4.48471543 -8.20670724 4.33465769 -10.9375 6.625 Z " fill="#1F254E" transform="translate(249,379)"/>
<path d="M0 0 C10 0 10 0 14 3 C15.91090675 8.50790768 16.53059634 14.33679352 15 20 C14.01 20.33 13.02 20.66 12 21 C12 21.66 12 22.32 12 23 C8.04 23 4.08 23 0 23 C0 15.41 0 7.82 0 0 Z M6 4 C6 5.65 6 7.3 6 9 C6.66 8.67 7.32 8.34 8 8 C7.67 6.68 7.34 5.36 7 4 C6.67 4 6.34 4 6 4 Z M6 13 C6 14.65 6 16.3 6 18 C7.32 17.34 8.64 16.68 10 16 C9.34 15.01 8.68 14.02 8 13 C7.34 13 6.68 13 6 13 Z " fill="#222750" transform="translate(314,379)"/>
<path d="M0 0 C2.5625 1.125 2.5625 1.125 3.5546875 2.875 C4.80264085 6.10779344 5.5625 8.63373279 5.5625 12.125 C6.2225 12.125 6.8825 12.125 7.5625 12.125 C8.5525 15.755 9.5425 19.385 10.5625 23.125 C9.5625 24.125 9.5625 24.125 7 24.1875 C6.195625 24.166875 5.39125 24.14625 4.5625 24.125 C3.9025 22.805 3.2425 21.485 2.5625 20.125 C0.5825 20.125 -1.3975 20.125 -3.4375 20.125 C-4.0975 21.445 -4.7575 22.765 -5.4375 24.125 C-7.4175 24.125 -9.3975 24.125 -11.4375 24.125 C-10.79165196 19.05389685 -9.31102872 14.61755002 -7.5 9.875 C-7.23509766 9.15570313 -6.97019531 8.43640625 -6.69726562 7.6953125 C-3.86836609 0.19837775 -3.86836609 0.19837775 0 0 Z M-0.4375 11.125 C-1.4275 12.61 -1.4275 12.61 -2.4375 14.125 C-1.4475 14.125 -0.4575 14.125 0.5625 14.125 C0.2325 13.135 -0.0975 12.145 -0.4375 11.125 Z " fill="#1F254D" transform="translate(179.4375,377.875)"/>
<path d="M0 0 C1.32 0 2.64 0 4 0 C4 0.66 4 1.32 4 2 C4.66 2 5.32 2 6 2 C8.33333333 9 10.66666667 16 13 23 C12 24 12 24 9.4375 24.0625 C8.633125 24.041875 7.82875 24.02125 7 24 C6.34 22.68 5.68 21.36 5 20 C2.12586875 19.66602213 2.12586875 19.66602213 -1 20 C-2.0260734 21.31337396 -3.02727325 22.64664105 -4 24 C-6.6875 24.25 -6.6875 24.25 -9 24 C-7.43084774 15.89271331 -5.26411692 6.58014615 0 0 Z M1 11 C0.67 11.99 0.34 12.98 0 14 C0.99 13.67 1.98 13.34 3 13 C2.34 12.34 1.68 11.68 1 11 Z " fill="#1F254E" transform="translate(344,378)"/>
<path d="M0 0 C4.01634745 1.70301007 7.15831171 4.45109692 10.5 7.1875 C16.018613 11.66653313 21.46022983 15.14969416 27.8671875 18.26953125 C30 20 30 20 30.5078125 23.07421875 C30.34023437 24.03972656 30.17265625 25.00523437 30 26 C29.01 26.66 28.02 27.32 27 28 C25.01716521 26.88147781 23.03882377 25.75498675 21.0625 24.625 C19.96035156 23.99851562 18.85820312 23.37203125 17.72265625 22.7265625 C15 21 15 21 14 19 C12.34555737 17.97990325 10.67671148 16.98306479 9 16 C0.47411378 9.8868447 0.47411378 9.8868447 -0.578125 5.69921875 C-0.5625 3.5 -0.5625 3.5 0 0 Z " fill="#E20111" transform="translate(150,255)"/>
<path d="M0 0 C-0.375 1.9375 -0.375 1.9375 -1 4 C-3.49092811 5.24546405 -4.41080733 4.7767578 -7 4 C-7 4.99 -7 5.98 -7 7 C-5.576875 7.433125 -5.576875 7.433125 -4.125 7.875 C-1 9 -1 9 1 11 C1.5 14.3125 1.5 14.3125 1 18 C-1.5625 21 -1.5625 21 -5 23 C-8.6875 23.0625 -8.6875 23.0625 -12 22 C-13.9375 19.9375 -13.9375 19.9375 -15 18 C-14.34 16.68 -13.68 15.36 -13 14 C-8.25 15.875 -8.25 15.875 -6 17 C-6.03955898 15.07690578 -6.03955898 15.07690578 -7 13 C-9.95009373 11.27487535 -9.95009373 11.27487535 -13 10 C-14 9 -14 9 -14.1875 5.625 C-14 2 -14 2 -12 -1 C-7.61089629 -2.63023852 -4.32348669 -1.44116223 0 0 Z " fill="#1E244D" transform="translate(128,380)"/>
<path d="M0 0 C-0.33 1.65 -0.66 3.3 -1 5 C-3.97 4.505 -3.97 4.505 -7 4 C-5.18290604 5.91273048 -3.54662448 7.29522127 -1.3125 8.75 C1 11 1 11 1.5 14.5 C0.7591623 19.68586387 0.7591623 19.68586387 -2 22 C-5.375 23 -5.375 23 -9 23 C-11.9375 21.3125 -11.9375 21.3125 -14 19 C-14 17.68 -14 16.36 -14 15 C-11.44980222 14.08921508 -10.40445022 13.82156608 -7.875 14.9375 C-6.946875 15.4634375 -6.946875 15.4634375 -6 16 C-5.34 16 -4.68 16 -4 16 C-6.62481477 13.08353914 -9.72853238 11.13356584 -13 9 C-14 8 -14 8 -14.0625 4.9375 C-14.041875 3.968125 -14.02125 2.99875 -14 2 C-13.34 2 -12.68 2 -12 2 C-11.67 1.01 -11.34 0.02 -11 -1 C-7.21072879 -2.89463561 -3.80605364 -1.24428677 0 0 Z " fill="#1E244C" transform="translate(376,380)"/>
<path d="M0 0 C4.29 0 8.58 0 13 0 C13 1.65 13 3.3 13 5 C10.69 5 8.38 5 6 5 C6 5.99 6 6.98 6 8 C8.31 8 10.62 8 13 8 C13 9.65 13 11.3 13 13 C10.69 13 8.38 13 6 13 C6 14.65 6 16.3 6 18 C8.31 18 10.62 18 13 18 C13 19.65 13 21.3 13 23 C8.71 23 4.42 23 0 23 C0 15.41 0 7.82 0 0 Z " fill="#222851" transform="translate(384,379)"/>
<path d="M0 0 C1.98 0 3.96 0 6 0 C6 5.94 6 11.88 6 18 C7.98 18 9.96 18 12 18 C12 19.65 12 21.3 12 23 C8.04 23 4.08 23 0 23 C0 15.41 0 7.82 0 0 Z " fill="#232751" transform="translate(214,379)"/>
<path d="M0 0 C1.98 0 3.96 0 6 0 C6 5.94 6 11.88 6 18 C7.65 18 9.3 18 11 18 C11 19.65 11 21.3 11 23 C7.37 23 3.74 23 0 23 C0 15.41 0 7.82 0 0 Z " fill="#232852" transform="translate(196,379)"/>
<path d="M0 0 C2.97 0.33 5.94 0.66 9 1 C7.875 3.4375 7.875 3.4375 6 6 C2.8125 6.8125 2.8125 6.8125 0 7 C0 4.69 0 2.38 0 0 Z " fill="#E00213" transform="translate(190,279)"/>
<path d="M0 0 C0.66 0.33 1.32 0.66 2 1 C0.68 1.99 -0.64 2.98 -2 4 C-1.34 2.68 -0.68 1.36 0 0 Z M-4 4 C-3.34 4.33 -2.68 4.66 -2 5 C-5.465 7.97 -5.465 7.97 -9 11 C-7.75023244 7.34683329 -7.32901247 6.21934164 -4 4 Z " fill="#181A50" transform="translate(294,138)"/>
<path d="M0 0 C0 3 0 3 -2.5 5.6875 C-3.325 6.450625 -4.15 7.21375 -5 8 C-5.66 7.67 -6.32 7.34 -7 7 C-4.78071806 4.09197539 -3.07030857 2.04687238 0 0 Z " fill="#1B2149" transform="translate(201,240)"/>
</svg>
